<?xml version="1.0" encoding="utf-8"?>
<!-- Generator: Adobe Illustrator 25.0.0, SVG Export Plug-In . SVG Version: 6.00 Build 0)  -->
<svg version="1.1" id="Layer_1" xmlns="http://www.w3.org/2000/svg" xmlns:xlink="http://www.w3.org/1999/xlink" x="0px" y="0px"
	 viewBox="0 0 200 200" style="enable-background:new 0 0 200 200;" xml:space="preserve">
<style type="text/css">
	.st0{fill:url(#SVGID_1_);}
	.st1{fill:url(#SVGID_2_);}
	.st2{fill:#FFFFFF;stroke:url(#SVGID_3_);stroke-width:20;stroke-miterlimit:10;}
	.st3{fill:none;stroke:url(#SVGID_4_);stroke-width:20;stroke-miterlimit:10;}
	.st4{fill:none;stroke:url(#SVGID_5_);stroke-width:20;stroke-miterlimit:10;}
	.st5{fill:#FFFFFF;stroke:url(#SVGID_6_);stroke-width:20;stroke-miterlimit:10;}
	.st6{fill:url(#SVGID_7_);}
	.st7{fill:#FFFFFF;stroke:url(#SVGID_8_);stroke-width:20;stroke-miterlimit:10;}
	.st8{fill:url(#SVGID_9_);}
	.st9{fill:url(#SVGID_10_);}
	.st10{fill:url(#SVGID_11_);}
</style>
<g>
	<g>
		
			<linearGradient id="SVGID_1_" gradientUnits="userSpaceOnUse" x1="99.7107" y1="52.2974" x2="158.2003" y2="52.2974" gradientTransform="matrix(0.9213 0.389 -0.389 0.9213 46.7022 -26.5955)">
			<stop  offset="4.102398e-07" style="stop-color:#20135C"/>
			<stop  offset="0.3951" style="stop-color:#1F1359"/>
			<stop  offset="0.6538" style="stop-color:#1D1251"/>
			<stop  offset="0.8726" style="stop-color:#191142"/>
			<stop  offset="1" style="stop-color:#151035"/>
		</linearGradient>
		<path style="fill:#FFFFFF;stroke:url(#SVGID_1_);stroke-width:20;stroke-miterlimit:10;" d="M177.5,44.3c1.3-1.4-0.6-3.5-2.1-2.3
			c-10,7.8-23.3,18.2-33.5,26.3c-15.6,12.4-26.7,27.8-29.9,32.5c-0.2,0.3,0.2,0.6,0.4,0.4c5.6-3.9,27.3-19.1,36.4-27.2
			C155.1,68.5,167.9,54.8,177.5,44.3z"/>
		
			<linearGradient id="SVGID_2_" gradientUnits="userSpaceOnUse" x1="73.6983" y1="139.4669" x2="110.0907" y2="139.4669" gradientTransform="matrix(0.9213 0.389 -0.389 0.9213 46.7022 -26.5955)">
			<stop  offset="4.102398e-07" style="stop-color:#20135C"/>
			<stop  offset="0.3951" style="stop-color:#1F1359"/>
			<stop  offset="0.6538" style="stop-color:#1D1251"/>
			<stop  offset="0.8726" style="stop-color:#191142"/>
			<stop  offset="1" style="stop-color:#151035"/>
		</linearGradient>
		<path class="st1" d="M97.1,114.3c-5.2-5.1-19.5-6.4-29.2,5.5s-18.8,38.5-18.8,38.5s18-16.5,27.9-16.4s20.1,0.6,21.9-9.9
			S100.3,117.4,97.1,114.3z"/>
	</g>
	<g>
		
			<linearGradient id="SVGID_3_" gradientUnits="userSpaceOnUse" x1="44.0232" y1="0.1681" x2="102.5128" y2="0.1681" gradientTransform="matrix(0.5318 0.8468 -0.8468 0.5318 101.3505 4.4401)">
			<stop  offset="4.102398e-07" style="stop-color:#20135C"/>
			<stop  offset="0.3951" style="stop-color:#1F1359"/>
			<stop  offset="0.6538" style="stop-color:#1D1251"/>
			<stop  offset="0.8726" style="stop-color:#191142"/>
			<stop  offset="1" style="stop-color:#151035"/>
		</linearGradient>
		<path class="st2" d="M182.4,62.6c1.9-0.4,1.5-3.2-0.4-3.1c-12.7,0.7-29.5,1.6-42.5,2.3c-19.9,1.2-37.9,7.5-43.1,9.5
			c-0.3,0.1-0.2,0.6,0.1,0.6c6.9,0,33.3,0,45.4-1.4C150.1,69.6,168.5,65.7,182.4,62.6z"/>
		
			<linearGradient id="SVGID_4_" gradientUnits="userSpaceOnUse" x1="18.0108" y1="87.3376" x2="54.4032" y2="87.3376" gradientTransform="matrix(0.5318 0.8468 -0.8468 0.5318 101.3505 4.4401)">
			<stop  offset="4.102398e-07" style="stop-color:#20135C"/>
			<stop  offset="0.3951" style="stop-color:#1F1359"/>
			<stop  offset="0.6538" style="stop-color:#1D1251"/>
			<stop  offset="0.8726" style="stop-color:#191142"/>
			<stop  offset="1" style="stop-color:#151035"/>
		</linearGradient>
		<path style="fill:url(#SVGID_4_);" d="M76.4,73.9C75,66.7,64,57.4,49.3,61.7S11.8,82.4,11.8,82.4S36,79.2,44,85
			c8,5.8,16.1,12,23.6,4.4C75,81.9,77.2,78.3,76.4,73.9z"/>
	</g>
	
		<linearGradient id="SVGID_5_" gradientUnits="userSpaceOnUse" x1="58.2356" y1="74.0466" x2="85.2927" y2="74.0466" gradientTransform="matrix(0.2208 0.9753 -0.9753 0.2208 138.1563 -12.8618)">
		<stop  offset="4.102398e-07" style="stop-color:#20135C"/>
		<stop  offset="0.3951" style="stop-color:#1F1359"/>
		<stop  offset="0.6538" style="stop-color:#1D1251"/>
		<stop  offset="0.8726" style="stop-color:#191142"/>
		<stop  offset="1" style="stop-color:#151035"/>
	</linearGradient>
	<path style="fill:url(#SVGID_5_);" d="M80.9,84.2l-4.5-20c-0.4-1.7,0.7-3.5,2.5-3.9l0,0c1.7-0.4,3.5,0.7,3.9,2.5l4.5,20
		c0.4,1.7-0.7,3.5-2.5,3.9h0C83,87.1,81.3,86,80.9,84.2z"/>
	
		<linearGradient id="SVGID_6_" gradientUnits="userSpaceOnUse" x1="126.0297" y1="83.7618" x2="153.0869" y2="83.7618" gradientTransform="matrix(0.7569 0.6536 -0.6536 0.7569 50.2529 -44.3169)">
		<stop  offset="4.102398e-07" style="stop-color:#20135C"/>
		<stop  offset="0.3951" style="stop-color:#1F1359"/>
		<stop  offset="0.6538" style="stop-color:#1D1251"/>
		<stop  offset="0.8726" style="stop-color:#191142"/>
		<stop  offset="1" style="stop-color:#151035"/>
	</linearGradient>
	<path style="fill:url(#SVGID_6_);" d="M106.8,119.5L91.2,106c-1.4-1.2-1.5-3.2-0.3-4.6l0,0c1.2-1.4,3.2-1.5,4.6-0.3l15.5,13.4
		c1.4,1.2,1.5,3.2,0.3,4.6l0,0C110.2,120.5,108.1,120.6,106.8,119.5z"/>
</g>
</svg>
