<?xml version="1.0" encoding="utf-8"?>
<!-- Generator: Adobe Illustrator 25.0.0, SVG Export Plug-In . SVG Version: 6.00 Build 0)  -->
<svg version="1.1" id="Layer_1" xmlns="http://www.w3.org/2000/svg" xmlns:xlink="http://www.w3.org/1999/xlink" x="0px" y="0px"
	 viewBox="0 0 200 200" style="enable-background:new 0 0 200 200;" xml:space="preserve">
<style type="text/css">
	.st0{fill:#dddddd;}
</style>
<g>
	<path class="st0" d="M67.9,119.8c-9.6,11.9-18.8,38.5-18.8,38.5s18-16.5,27.9-16.4s20.1,0.6,21.9-9.9c1.8-10.5,1.5-14.7-1.7-17.8
		C91.9,109.2,77.5,107.9,67.9,119.8z"/>
	<path class="st0" d="M193.6,59.5c-0.6-4.6-3.8-8.1-7.9-9.4c3.3-4.4,3-10.6-0.8-14.7c-4.1-4.5-10.8-5-15.6-1.3
		c-6.3,4.9-14.4,11.2-22.1,17.3c-2.8,0.2-5.6,0.3-8.2,0.5c-21.4,1.3-40.7,8-46.1,10.1c-4.7,1.8-7.4,6.6-6.5,11.5
		c0.9,4.9,5.2,8.5,10.1,8.5c0.6,0,1.2,0,1.9,0c3.6,0,9.3,0,15.5-0.1c-5.1,6-8.6,11-10.2,13.3c-2.8,4.1-2.3,9.6,1.3,13.1
		c2,2,4.6,3,7.3,3c2.1,0,4.1-0.6,5.9-1.9c6.4-4.4,27.9-19.5,37.3-27.9c1.1-1,2.5-2.3,4-3.8c6.8-1.3,15.1-3.1,25-5.3l0,0
		C190.5,71.1,194.4,65.6,193.6,59.5z"/>
	<path class="st0" d="M67.6,89.5c7.5-7.5,9.6-11.2,8.8-15.6C75,66.7,64,57.4,49.3,61.7S11.8,82.4,11.8,82.4S36,79.2,44,85
		S60.1,97,67.6,89.5z"/>
	<path class="st0" d="M80.9,84.2c0.4,1.7,2.1,2.9,3.9,2.5h0c1.7-0.4,2.9-2.1,2.5-3.9l-4.5-20c-0.4-1.7-2.1-2.9-3.9-2.5
		c-1.7,0.4-2.9,2.1-2.5,3.9L80.9,84.2z"/>
	<path class="st0" d="M95.5,101.1c-1.4-1.2-3.4-1-4.6,0.3s-1,3.4,0.3,4.6l15.5,13.4c1.4,1.2,3.4,1,4.6-0.3c1.2-1.4,1-3.4-0.3-4.6
		L95.5,101.1z"/>
</g>
</svg>
