<?xml version="1.0" encoding="utf-8"?>
<!-- Generator: Adobe Illustrator 25.0.0, SVG Export Plug-In . SVG Version: 6.00 Build 0)  -->
<svg version="1.1" id="Layer_1" xmlns="http://www.w3.org/2000/svg" xmlns:xlink="http://www.w3.org/1999/xlink" x="0px" y="0px"
	 viewBox="0 0 200 200" style="enable-background:new 0 0 200 200;" xml:space="preserve">
<style type="text/css">
	.st0{fill:url(#SVGID_1_);}
	.st1{fill:url(#SVGID_2_);}
	.st2{fill:#FFFFFF;stroke:url(#SVGID_3_);stroke-width:20;stroke-miterlimit:10;}
	.st3{fill:none;stroke:url(#SVGID_4_);stroke-width:20;stroke-miterlimit:10;}
	.st4{fill:none;stroke:url(#SVGID_5_);stroke-width:20;stroke-miterlimit:10;}
	.st5{fill:#FFFFFF;stroke:url(#SVGID_6_);stroke-width:20;stroke-miterlimit:10;}
	.st6{fill:url(#SVGID_7_);}
	.st7{fill:#FFFFFF;stroke:url(#SVGID_8_);stroke-width:20;stroke-miterlimit:10;}
	.st8{fill:url(#SVGID_9_);}
	.st9{fill:url(#SVGID_10_);}
	.st10{fill:url(#SVGID_11_);}
</style>
<g>
	<g>
		<linearGradient id="SVGID_1_" gradientUnits="userSpaceOnUse" x1="106.611" y1="112.8217" x2="180.6841" y2="70.0556">
			<stop  offset="4.102398e-07" style="stop-color:#20135C"/>
			<stop  offset="0.3951" style="stop-color:#1F1359"/>
			<stop  offset="0.6538" style="stop-color:#1D1251"/>
			<stop  offset="0.8726" style="stop-color:#191142"/>
			<stop  offset="1" style="stop-color:#151035"/>
		</linearGradient>
		<path class="st0" d="M118.3,67.6L118.3,67.6c0,4.7,2.5,9,6.5,11.3l28.8,16.6c2.3,1.3,2.3,4.6,0,5.9l-28.7,16.5
			c-4.1,2.3-6.6,6.7-6.6,11.4v0.2c0,10.2,11.2,16.5,19.9,11.2l50.6-31c8.3-5.1,8.3-17.2,0-22.3l-50.6-30.9
			C129.5,51.1,118.3,57.3,118.3,67.6z"/>
	</g>
	<g>
		<linearGradient id="SVGID_2_" gradientUnits="userSpaceOnUse" x1="19.3487" y1="126.9727" x2="93.3889" y2="84.2256">
			<stop  offset="4.102398e-07" style="stop-color:#20135C"/>
			<stop  offset="0.3951" style="stop-color:#1F1359"/>
			<stop  offset="0.6538" style="stop-color:#1D1251"/>
			<stop  offset="0.8726" style="stop-color:#191142"/>
			<stop  offset="1" style="stop-color:#151035"/>
		</linearGradient>
		<path class="st1" d="M81.7,67.6L81.7,67.6c0,4.7-2.5,9-6.5,11.3L46.4,95.5c-2.3,1.3-2.3,4.6,0,5.9l28.7,16.5
			c4.1,2.3,6.6,6.7,6.6,11.4v0.2c0,10.2-11.2,16.5-19.9,11.2l-50.6-31c-8.3-5.1-8.3-17.2,0-22.3l50.6-30.9
			C70.5,51.1,81.7,57.3,81.7,67.6z"/>
	</g>
</g>
</svg>
