<?xml version="1.0" encoding="utf-8"?>
<!-- Generator: Adobe Illustrator 25.0.0, SVG Export Plug-In . SVG Version: 6.00 Build 0)  -->
<svg version="1.1" id="Layer_1" xmlns="http://www.w3.org/2000/svg" xmlns:xlink="http://www.w3.org/1999/xlink" x="0px" y="0px"
	 viewBox="0 0 200 200" style="enable-background:new 0 0 200 200;" xml:space="preserve">
<style type="text/css">
	.st0{fill:#dddddd;}
</style>
<g>
	<path class="st0" d="M188.8,87.3l-50.6-30.9c-8.7-5.3-19.9,0.9-19.9,11.2c0,4.7,2.5,9,6.5,11.3l28.8,16.6c2.3,1.3,2.3,4.6,0,5.9
		l-28.7,16.5c-4.1,2.3-6.6,6.7-6.6,11.4v0.2c0,10.2,11.2,16.5,19.9,11.2l50.6-31C197.1,104.5,197.1,92.4,188.8,87.3z"/>
	<path class="st0" d="M46.4,95.5l28.8-16.6c4.1-2.3,6.5-6.7,6.5-11.3c0-10.2-11.2-16.5-19.9-11.2L11.2,87.3
		c-8.3,5.1-8.4,17.2,0,22.3l50.6,31c8.7,5.3,19.9-0.9,19.9-11.2v-0.2c0-4.7-2.5-9-6.6-11.4l-28.7-16.5
		C44.1,100.1,44.1,96.8,46.4,95.5z"/>
</g>
</svg>
