<?xml version="1.0" encoding="utf-8"?>
<!-- Generator: Adobe Illustrator 25.0.0, SVG Export Plug-In . SVG Version: 6.00 Build 0)  -->
<svg version="1.1" id="Layer_1" xmlns="http://www.w3.org/2000/svg" xmlns:xlink="http://www.w3.org/1999/xlink" x="0px" y="0px"
	 viewBox="0 0 200 200" style="enable-background:new 0 0 200 200;" xml:space="preserve">
<style type="text/css">
	.st0{fill:#dddddd;}
</style>
<g>
	<path class="st0" d="M108.8,116V112h-3.1C106.9,113.4,107.9,114.7,108.8,116z"/>
	<path class="st0" d="M159.4,49.7h-2.8v-9.2c0-12.1-9.9-22-22-22h-94c-12.1,0-22,9.9-22,22V90c0,12.1,9.9,22,22,22h24.2
		c-4.3,4.8-8.2,10.9-6.1,17.5c0.6,2,3.5,8.4,12.9,8.4h27.1c4.9,0,8.1-1.8,10-3.7v14.6c0,12.1,9.9,22,22,22h28.6c12.1,0,22-9.9,22-22
		V71.7C181.4,59.6,171.5,49.7,159.4,49.7z M108.8,116c-0.9-1.3-1.9-2.6-3.1-3.9h3.1V116z M108.8,71.7V92H40.6c-1.1,0-2-0.9-2-2V40.5
		c0-1.1,0.9-2,2-2h94c1.1,0,2,0.9,2,2v9.2h-5.8C118.6,49.7,108.8,59.6,108.8,71.7z M161.4,148.8c0,1.1-0.9,2-2,2h-28.6
		c-1.1,0-2-0.9-2-2V71.7c0-1.1,0.9-2,2-2h28.6c1.1,0,2,0.9,2,2V148.8z"/>
</g>
</svg>
