<?xml version="1.0" encoding="utf-8"?>
<!-- Generator: Adobe Illustrator 25.0.0, SVG Export Plug-In . SVG Version: 6.00 Build 0)  -->
<svg version="1.1" id="Layer_1" xmlns="http://www.w3.org/2000/svg" xmlns:xlink="http://www.w3.org/1999/xlink" x="0px" y="0px"
	 viewBox="0 0 200 200" style="enable-background:new 0 0 200 200;" xml:space="preserve">
<style type="text/css">
	.st0{fill:url(#SVGID_1_);}
	.st1{fill:url(#SVGID_2_);}
	.st2{fill:#FFFFFF;stroke:url(#SVGID_3_);stroke-width:20;stroke-miterlimit:10;}
	.st3{fill:none;stroke:url(#SVGID_4_);stroke-width:20;stroke-miterlimit:10;}
	.st4{fill:none;stroke:url(#SVGID_5_);stroke-width:20;stroke-miterlimit:10;}
	.st5{fill:#FFFFFF;stroke:url(#SVGID_6_);stroke-width:20;stroke-miterlimit:10;}
	.st6{fill:url(#SVGID_7_);}
	.st7{fill:#FFFFFF;stroke:url(#SVGID_8_);stroke-width:20;stroke-miterlimit:10;}
	.st8{fill:url(#SVGID_9_);}
	.st9{fill:url(#SVGID_10_);}
	.st10{fill:url(#SVGID_11_);}
</style>
<linearGradient id="SVGID_1_" gradientUnits="userSpaceOnUse" x1="61.9146" y1="135.5717" x2="105.5993" y2="110.3504">
	<stop  offset="4.102398e-07" style="stop-color:#20135C"/>
	<stop  offset="0.3951" style="stop-color:#1F1359"/>
	<stop  offset="0.6538" style="stop-color:#1D1251"/>
	<stop  offset="0.8726" style="stop-color:#191142"/>
	<stop  offset="1" style="stop-color:#151035"/>
</linearGradient>
<path style="fill:#FFFFFF;stroke:url(#SVGID_1_);stroke-width:20;stroke-miterlimit:10;" d="M87.8,108.7c-1.1-1-3.1-1-4.3-0.1
	c-6.7,4.9-22.2,19.4-11.8,19.4c12.5,0,14.4,0,27.1,0C109.3,127.9,93.6,113.7,87.8,108.7z"/>
<linearGradient id="SVGID_2_" gradientUnits="userSpaceOnUse" x1="19.8187" y1="97.9635" x2="149.8239" y2="22.905">
	<stop  offset="4.102398e-07" style="stop-color:#20135C"/>
	<stop  offset="0.3951" style="stop-color:#1F1359"/>
	<stop  offset="0.6538" style="stop-color:#1D1251"/>
	<stop  offset="0.8726" style="stop-color:#191142"/>
	<stop  offset="1" style="stop-color:#151035"/>
</linearGradient>
<path style="fill:none;stroke:url(#SVGID_2_);stroke-width:20;stroke-miterlimit:10;" d="M118.1,102H40.6c-6.6,0-12-5.4-12-12V40.5
	c0-6.6,5.4-12,12-12h94c6.6,0,12,5.4,12,12v28.3"/>
<linearGradient id="SVGID_3_" gradientUnits="userSpaceOnUse" x1="98.6019" y1="137.1148" x2="191.5258" y2="83.4651">
	<stop  offset="4.102398e-07" style="stop-color:#20135C"/>
	<stop  offset="0.3951" style="stop-color:#1F1359"/>
	<stop  offset="0.6538" style="stop-color:#1D1251"/>
	<stop  offset="0.8726" style="stop-color:#191142"/>
	<stop  offset="1" style="stop-color:#151035"/>
</linearGradient>
<path style="fill:none;stroke:url(#SVGID_3_);stroke-width:20;stroke-miterlimit:10;" d="M159.4,160.8h-28.6c-6.6,0-12-5.4-12-12
	V71.7c0-6.6,5.4-12,12-12h28.6c6.6,0,12,5.4,12,12v77.1C171.4,155.4,166,160.8,159.4,160.8z"/>
</svg>
